<svg xmlns="http://www.w3.org/2000/svg" xmlns:xlink="http://www.w3.org/1999/xlink" width="500" zoomAndPan="magnify" viewBox="0 0 375 374.999991" height="500" preserveAspectRatio="xMidYMid meet" version="1.0"><defs><clipPath id="5a6d1267b4"><path d="M 144 118.789062 L 232 118.789062 L 232 256.011719 L 144 256.011719 Z M 144 118.789062 " clip-rule="nonzero"/></clipPath></defs><g clip-path="url(#5a6d1267b4)"><path fill="#e92026" d="M 188.875 118.777344 C 188.476562 118.769531 188.066406 118.761719 187.65625 118.761719 C 187.246094 118.761719 186.839844 118.769531 186.429688 118.777344 C 154.082031 119.597656 134.09375 154.382812 149.132812 182.910156 L 160.695312 204.851562 L 187.65625 256.011719 L 197.136719 238.011719 C 193.261719 230.839844 189.375 223.667969 185.492188 216.5 C 179.5625 205.546875 173.632812 194.59375 167.703125 183.648438 C 164.691406 178.085938 161.820312 172.414062 161.035156 166.054688 C 159.136719 150.714844 172.28125 137.054688 187.550781 136.996094 C 202.523438 136.9375 214.671875 148.996094 214.671875 163.882812 C 214.671875 178.734375 202.570312 190.769531 187.65625 190.769531 C 187.164062 190.769531 186.675781 190.757812 186.1875 190.734375 L 204.167969 224.6875 L 214.621094 204.851562 L 226.175781 182.910156 C 241.214844 154.382812 221.226562 119.597656 188.875 118.777344 " fill-opacity="1" fill-rule="nonzero"/></g></svg>