<svg xmlns="http://www.w3.org/2000/svg" xmlns:xlink="http://www.w3.org/1999/xlink" width="500" zoomAndPan="magnify" viewBox="0 0 375 374.999991" height="500" preserveAspectRatio="xMidYMid meet" version="1.0"><defs><g/><clipPath id="96aa7f592d"><path d="M 42 111.332031 L 125 111.332031 L 125 240.332031 L 42 240.332031 Z M 42 111.332031 " clip-rule="nonzero"/></clipPath></defs><g fill="#1b0000" fill-opacity="1"><g transform="translate(133.314449, 178.89944)"><g><path d="M 19.742188 0.789062 C 31.144531 0.789062 37.773438 -6.859375 37.648438 -19.054688 L 19.382812 -19.054688 L 19.382812 -12.601562 L 28.667969 -12.601562 C 27.675781 -8.800781 24.332031 -6.605469 19.691406 -6.605469 C 14.078125 -6.605469 9.410156 -10.484375 9.410156 -17.371094 C 9.410156 -24.078125 14.078125 -28.160156 19.691406 -28.160156 C 24 -28.160156 27.265625 -26.144531 28.949219 -22.75 L 37.164062 -22.75 C 35.707031 -30.9375 27.214844 -35.554688 19.921875 -35.554688 C 9.640625 -35.554688 1.328125 -27.496094 1.328125 -17.394531 C 1.328125 -7.320312 9.640625 0.789062 19.742188 0.789062 Z M 19.742188 0.789062 "/></g></g></g><g fill="#1b0000" fill-opacity="1"><g transform="translate(173.427408, 178.89944)"><g><path d="M 28.234375 0 L 28.234375 -7.191406 L 11.628906 -7.191406 L 11.628906 -14.234375 L 25.683594 -14.234375 L 25.683594 -20.964844 L 11.628906 -20.964844 L 11.628906 -27.519531 L 28.003906 -27.519531 L 28.003906 -34.6875 L 3.546875 -34.6875 L 3.546875 0 Z M 28.234375 0 "/></g></g></g><g fill="#1b0000" fill-opacity="1"><g transform="translate(204.309437, 178.89944)"><g><path d="M 18.695312 0 L 18.695312 -27.496094 L 28.386719 -27.496094 L 28.386719 -34.6875 L 0.945312 -34.6875 L 0.945312 -27.496094 L 10.660156 -27.496094 L 10.660156 0 Z M 18.695312 0 "/></g></g></g><g fill="#1b0000" fill-opacity="1"><g transform="translate(234.78347, 178.89944)"><g/></g></g><g fill="#1b0000" fill-opacity="1"><g transform="translate(248.478631, 178.89944)"><g><path d="M 11.628906 0 L 11.628906 -21.882812 L 20.429688 -9.335938 L 22.472656 -9.335938 L 31.371094 -21.808594 L 31.371094 0 L 39.433594 0 L 39.433594 -34.6875 L 32.394531 -34.6875 L 21.449219 -19.792969 L 21.449219 -19.765625 L 10.660156 -34.6875 L 3.546875 -34.6875 L 3.546875 0 Z M 11.628906 0 "/></g></g></g><g fill="#1b0000" fill-opacity="1"><g transform="translate(292.595059, 178.89944)"><g><path d="M 21.65625 0 L 21.628906 -13.160156 L 35.019531 -34.6875 L 25.582031 -34.6875 L 17.648438 -20.277344 L 9.617188 -34.6875 L 0.253906 -34.6875 L 13.570312 -13.109375 L 13.570312 0 Z M 21.65625 0 "/></g></g></g><g fill="#e92026" fill-opacity="1"><g transform="translate(144.462244, 208.839214)"><g><path d="M 7.039062 0 L 7.039062 -1.101562 L 2.492188 -1.101562 L 2.492188 -9.359375 L 1.273438 -9.359375 L 1.273438 0 Z M 7.039062 0 "/></g></g></g><g fill="#e92026" fill-opacity="1"><g transform="translate(163.054756, 208.839214)"><g><path d="M 5.554688 0.1875 C 8.320312 0.1875 10.5625 -1.980469 10.5625 -4.6875 C 10.5625 -7.410156 8.320312 -9.566406 5.554688 -9.566406 C 2.792969 -9.566406 0.558594 -7.410156 0.558594 -4.6875 C 0.558594 -1.980469 2.792969 0.1875 5.554688 0.1875 Z M 5.554688 -0.941406 C 3.46875 -0.941406 1.777344 -2.558594 1.777344 -4.6875 C 1.777344 -6.820312 3.460938 -8.445312 5.554688 -8.445312 C 7.652344 -8.445312 9.347656 -6.820312 9.347656 -4.6875 C 9.347656 -2.558594 7.652344 -0.941406 5.554688 -0.941406 Z M 5.554688 -0.941406 "/></g></g></g><g fill="#e92026" fill-opacity="1"><g transform="translate(185.450078, 208.839214)"><g><path d="M 5.4375 0.1875 C 7.433594 0.1875 9.351562 -0.9375 9.820312 -3.199219 L 8.574219 -3.199219 C 8.15625 -1.691406 6.910156 -0.941406 5.402344 -0.941406 C 3.367188 -0.941406 1.777344 -2.476562 1.777344 -4.6875 C 1.777344 -6.882812 3.367188 -8.445312 5.402344 -8.445312 C 6.917969 -8.445312 8.15625 -7.695312 8.582031 -6.179688 L 9.820312 -6.179688 C 9.351562 -8.4375 7.417969 -9.566406 5.4375 -9.566406 C 2.691406 -9.566406 0.558594 -7.410156 0.558594 -4.6875 C 0.558594 -1.980469 2.691406 0.1875 5.4375 0.1875 Z M 5.4375 0.1875 "/></g></g></g><g fill="#e92026" fill-opacity="1"><g transform="translate(207.109601, 208.839214)"><g><path d="M 9.179688 0 L 5.222656 -9.359375 L 4.054688 -9.359375 L 0.0898438 0 L 1.382812 0 L 2.269531 -2.121094 L 7 -2.121094 L 7.886719 0 Z M 4.589844 -7.644531 L 4.632812 -7.804688 L 4.644531 -7.804688 L 4.679688 -7.644531 L 6.566406 -3.152344 L 2.703125 -3.152344 Z M 4.589844 -7.644531 "/></g></g></g><g fill="#e92026" fill-opacity="1"><g transform="translate(227.655094, 208.839214)"><g><path d="M 4.515625 0 L 4.515625 -8.265625 L 7.480469 -8.265625 L 7.480469 -9.359375 L 0.335938 -9.359375 L 0.335938 -8.265625 L 3.296875 -8.265625 L 3.296875 0 Z M 4.515625 0 "/></g></g></g><g fill="#e92026" fill-opacity="1"><g transform="translate(246.756481, 208.839214)"><g><path d="M 2.492188 0 L 2.492188 -9.359375 L 1.273438 -9.359375 L 1.273438 0 Z M 2.492188 0 "/></g></g></g><g fill="#e92026" fill-opacity="1"><g transform="translate(261.800615, 208.839214)"><g><path d="M 5.554688 0.1875 C 8.320312 0.1875 10.5625 -1.980469 10.5625 -4.6875 C 10.5625 -7.410156 8.320312 -9.566406 5.554688 -9.566406 C 2.792969 -9.566406 0.558594 -7.410156 0.558594 -4.6875 C 0.558594 -1.980469 2.792969 0.1875 5.554688 0.1875 Z M 5.554688 -0.941406 C 3.46875 -0.941406 1.777344 -2.558594 1.777344 -4.6875 C 1.777344 -6.820312 3.460938 -8.445312 5.554688 -8.445312 C 7.652344 -8.445312 9.347656 -6.820312 9.347656 -4.6875 C 9.347656 -2.558594 7.652344 -0.941406 5.554688 -0.941406 Z M 5.554688 -0.941406 "/></g></g></g><g fill="#e92026" fill-opacity="1"><g transform="translate(284.195942, 208.839214)"><g><path d="M 8.074219 -2.023438 L 8.066406 -2.023438 L 2.296875 -9.359375 L 1.273438 -9.359375 L 1.273438 0 L 2.492188 0 L 2.492188 -7.316406 L 8.25 0 L 9.285156 0 L 9.285156 -9.359375 L 8.074219 -9.359375 Z M 8.074219 -2.023438 "/></g></g></g><g clip-path="url(#96aa7f592d)"><path fill="#e92026" d="M 84.394531 111.324219 C 84.019531 111.3125 83.636719 111.308594 83.25 111.308594 C 82.867188 111.308594 82.484375 111.3125 82.101562 111.324219 C 51.789062 112.097656 33.058594 144.980469 47.152344 171.949219 L 57.988281 192.691406 L 83.25 241.054688 L 92.136719 224.039062 C 88.503906 217.261719 84.863281 210.480469 81.226562 203.703125 C 75.667969 193.347656 70.113281 182.992188 64.554688 172.644531 C 61.730469 167.390625 59.042969 162.027344 58.304688 156.015625 C 56.527344 141.511719 68.84375 128.601562 83.152344 128.546875 C 97.179688 128.488281 108.566406 139.890625 108.566406 153.960938 C 108.566406 168.003906 97.226562 179.382812 83.25 179.382812 C 82.789062 179.382812 82.332031 179.371094 81.875 179.347656 L 98.722656 211.445312 L 108.519531 192.691406 L 119.34375 171.949219 C 133.441406 144.980469 114.710938 112.097656 84.394531 111.324219 " fill-opacity="1" fill-rule="nonzero"/></g></svg>